<?xml version="1.0" standalone="no"?> <!DOCTYPE svg PUBLIC "-//W3C//DTD SVG 1.0//EN" "http://www.w3.org/TR/2001/REC-SVG-20010904/DTD/svg10.dtd" > <svg xmlns="http://www.w3.org/2000/svg" width="100%" height="100%">
<defs >
<font id="myriadproboldit" horiz-adv-x="1050" ><font-face
    font-family="Myriad Pro"
    units-per-em="2048"
    panose-1="2 11 7 3 3 4 3 9 2 4"
    ascent="1536"
    descent="-512"
    alphabetic="0" />
<missing-glyph horiz-adv-x="1024" d="M0 0V1434H1024V0H0ZM512 809L860 1331H164L512 809ZM573 717L922 195V1239L573 717ZM164 102H860L512 625L164 102ZM102 1239V195L451 717L102 1239Z" />
<glyph unicode=" " glyph-name="space" horiz-adv-x="376" />
<glyph unicode="!" glyph-name="exclam" horiz-adv-x="550" d="M379 453H150L283 1380H600L379 453ZM193 -23Q120 -23 75 24T29 145Q29 229 85 289T227 350Q301 350 348 302T395 178Q395 90 338 34T193 -23Z" />
<glyph unicode="&quot;" glyph-name="quotedbl" horiz-adv-x="792" d="M236 1417H510L358 848H172L236 1417ZM629 1417H903L752 848H565L629 1417Z" />
<glyph unicode="#" glyph-name="numbersign" horiz-adv-x="1107" d="M455 551H633L707 786H528L455 551ZM281 0H98L213 367H45L76 551H272L350 786H176L205 971H406L520 1331H698L584 971H764L879 1331H1059L944 971H1110L1079 786H887L813 551H983L952 367H752L639
0H457L571 367H393L281 0Z" />
<glyph unicode="$" glyph-name="dollar" horiz-adv-x="1107" d="M512 -178H317L354 16Q266 21 176 54T35 125L129 348Q269 246 453 246Q546 246 605 285T664 389Q664 442 624 482T489 567Q424 601 376 634T283 710T216 806T193 920Q193 1074 306 1182T606 1311L643
1493H836L801 1313Q965 1304 1067 1237L973 1018Q851 1092 694 1092Q610 1092 561 1055T512 963Q512 916 557 878T717 782Q985 650 985 432Q985 341 950 266T854 141T716 60T549 18L512 -178Z" />
<glyph unicode="%" glyph-name="percent" horiz-adv-x="1779" d="M565 1354Q701 1354 779 1269T858 1049Q858 905 802 786T648 600T430 532Q295 532 211 616T127 848Q127 982 180 1096T335 1282T565 1354ZM532 1184Q478 1184 435 1124T372 986T352 842Q352 779
377 741T453 702Q496 702 532 739T589 833T621 947T633 1053Q633 1110 609 1147T532 1184ZM508 -23H332L1321 1352H1495L508 -23ZM1415 803Q1550 803 1629 718T1708 498Q1708 354 1652 236T1498 50T1280 -18Q1145 -18 1061 66T977 297Q977 431 1030 545T1185 731T1415
803ZM1382 633Q1328 633 1285 573T1222 435T1202 291Q1202 229 1227 191T1303 152Q1360 152 1403 216T1464 358T1483 502Q1483 559 1459 596T1382 633Z" />
<glyph unicode="&amp;" glyph-name="ampersand" horiz-adv-x="1363" d="M1249 0H901Q886 16 827 94Q669 -23 457 -23Q263 -23 146 76T29 342Q29 611 362 768L365 774Q289 901 289 1008Q289 1177 410 1290T721 1403Q877 1403 974 1319T1071 1096Q1071 979 985 887T729
715V709Q788 617 913 444Q1030 578 1102 795H1374Q1315 628 1238 496T1049 258Q1135 132 1249 0ZM541 199Q637 199 709 264Q582 428 465 610Q330 512 330 393Q330 309 385 254T541 199ZM694 1212Q634 1212 594 1162T553 1038Q553 947 614 866Q702 906 755 963T809
1094Q809 1145 780 1178T694 1212Z" />
<glyph unicode="&apos;" glyph-name="quotesingle" horiz-adv-x="405" d="M240 1417H514L362 850H176L240 1417Z" />
<glyph unicode="(" glyph-name="parenleft" horiz-adv-x="643" d="M535 1413H754Q581 1198 472 915T362 322Q362 163 380 34T446 -238H238Q125 13 125 311Q125 649 237 932T535 1413Z" />
<glyph unicode=")" glyph-name="parenright" horiz-adv-x="643" d="M145 -238H-76Q96 -22 205 262T315 856Q315 1016 297 1143T231 1413H442Q553 1166 553 866Q553 528 441 245T145 -238Z" />
<glyph unicode="*" glyph-name="asterisk" horiz-adv-x="925" d="M711 1403L883 1298L631 1038L633 1034L971 1102L930 891L618 948L616 944L811 692L616 588L535 903L530 901L379 586L213 694L463 946L461 950L129 891L170 1102L471 1034V1038L285 1300L479 1403L559
1087H563L711 1403Z" />
<glyph unicode="+" glyph-name="plus" horiz-adv-x="1220" d="M512 1092H711V643H1135V453H711V0H512V453H88V643H512V1092Z" />
<glyph unicode="," glyph-name="comma" horiz-adv-x="532" d="M94 -225L-119 -244Q40 79 115 338L434 358Q282 23 94 -225Z" />
<glyph unicode="-" glyph-name="hyphen" horiz-adv-x="659" d="M90 641H621L580 434H49L90 641Z" />
<glyph unicode="." glyph-name="period" horiz-adv-x="532" d="M201 -20Q127 -20 82 27T37 150Q37 236 93 297T236 358Q311 358 358 309T406 182Q406 93 349 37T201 -20Z" />
<glyph unicode="/" glyph-name="slash" horiz-adv-x="667" d="M127 -82H-82L631 1403H840L127 -82Z" />
<glyph unicode="0" glyph-name="zero" horiz-adv-x="1107" d="M705 1354Q788 1354 853 1329T962 1262T1034 1161T1075 1036T1087 897Q1087 769 1064 642T990 394T868 181T692 33T467 -23Q385 -23 320 1T210 68T137 172T94 303T80 457Q80 585 105 711T182 954T307
1159T483 1301T705 1354ZM670 1120Q601 1120 541 1043T446 855T391 635T371 446Q371 211 502 211Q560 211 610 265T694 401T751 578T786 756T797 895Q797 1120 670 1120Z" />
<glyph unicode="1" glyph-name="one" horiz-adv-x="1107" d="M375 0L573 1055H569L309 940L299 1169L668 1331H909L657 0H375Z" />
<glyph unicode="2" glyph-name="two" horiz-adv-x="1107" d="M905 0H-6L31 190L317 412Q431 504 500 566T633 697T725 826T754 944Q754 1016 706 1061T571 1106Q414 1106 289 1028L229 1239Q313 1291 422 1322T643 1354Q838 1354 947 1252T1057 991Q1057 925 1041
863T991 743T920 637T826 535T722 442T606 350L473 256V252H950L905 0Z" />
<glyph unicode="3" glyph-name="three" horiz-adv-x="1107" d="M16 68L106 299Q244 225 397 225Q519 225 590 278T662 414Q662 592 389 592H338L381 817H428Q501 817 566 835T677 894T723 993Q723 1045 683 1076T559 1108Q400 1108 285 1042L244 1264Q319 1305
419 1329T618 1354Q733 1354 825 1321T976 1215T1034 1042Q1034 922 951 834T739 713L737 709Q841 687 905 608T969 416Q969 315 920 231T790 92T606 7T393 -23Q269 -23 166 3T16 68Z" />
<glyph unicode="4" glyph-name="four" horiz-adv-x="1107" d="M803 0H526L588 322H20L57 520L692 1331H1055L907 549H1063L1022 322H864L803 0ZM352 549H631L692 838Q702 880 756 1098H748Q728 1068 694 1015T630 918T573 836L354 553L352 549Z" />
<glyph unicode="5" glyph-name="five" horiz-adv-x="1107" d="M1092 1331L1040 1079H571L508 872Q563 877 565 877Q630 877 706 857T840 795Q911 747 949 671T987 500Q987 338 903 218T680 37T371 -23Q256 -23 162 -1T27 55L102 291Q146 264 220 245T375 225Q450
225 518 249T633 326T680 446Q680 493 664 528T612 592T509 636T350 651Q294 651 186 643L377 1331H1092Z" />
<glyph unicode="6" glyph-name="six" horiz-adv-x="1107" d="M1051 1350L1006 1110Q967 1112 895 1106Q720 1090 599 1004T424 793L428 791Q544 893 702 893Q851 893 946 789T1042 520Q1042 414 1003 316T894 142T725 22T510 -23Q365 -23 263 40T114 206T66 444Q66
663 158 852T395 1155Q505 1243 646 1292T940 1350Q992 1354 1051 1350ZM520 205Q587 205 638 251T713 360T737 489Q737 576 693 625T573 674Q514 674 464 641T381 551Q361 516 358 483Q354 457 354 412Q354 323 398 264T520 205Z" />
<glyph unicode="7" glyph-name="seven" horiz-adv-x="1107" d="M248 1331H1151L1114 1135L383 0H55L778 1075V1079H199L248 1331Z" />
<glyph unicode="8" glyph-name="eight" horiz-adv-x="1107" d="M684 1354Q853 1354 965 1268T1077 1030Q1077 926 1014 846T838 713V709Q925 659 972 580T1020 414Q1020 330 989 258T906 134T784 47T638 -6T483 -23Q276 -21 157 74T37 319Q37 453 117 549T322
696L324 702Q190 802 190 952Q190 1072 259 1165T441 1306T684 1354ZM514 193H518Q595 193 653 245T711 385Q711 527 539 588Q458 566 402 505T346 358Q346 287 391 240T514 193ZM647 1139Q576 1139 525 1088T473 969Q473 854 629 801Q697 824 745 876T793 997Q793
1059 754 1099T647 1139Z" />
<glyph unicode="9" glyph-name="nine" horiz-adv-x="1107" d="M98 -18L133 223Q163 220 258 223Q407 236 520 307Q666 396 737 551L733 555Q686 508 618 484T479 459Q321 459 223 558T125 819Q125 962 197 1085T394 1281T666 1354Q809 1354 908 1292T1052 1127T1098
889Q1097 665 1000 471T758 160Q657 80 524 34T252 -18Q182 -23 98 -18ZM639 1126Q553 1126 490 1042T426 856Q426 775 469 727T582 678Q639 678 686 703T760 766Q779 789 788 829Q801 868 801 936Q801 1020 760 1073T639 1126Z" />
<glyph unicode=":" glyph-name="colon" horiz-adv-x="532" d="M326 639Q253 639 208 686T162 807Q162 892 218 953T360 1014Q434 1014 481 966T528 840Q528 752 471 696T326 639ZM201 -23Q128 -23 83 24T37 145Q37 230 93 291T236 352Q310 352 356 304T403 178Q403
90 346 34T201 -23Z" />
<glyph unicode=";" glyph-name="semicolon" horiz-adv-x="532" d="M94 -225L-119 -244Q35 62 115 338L432 358Q285 26 94 -225ZM336 639Q263 639 218 686T172 807Q172 892 228 953T371 1014Q445 1014 492 965T539 840Q539 752 482 696T336 639Z" />
<glyph unicode="&lt;" glyph-name="less" horiz-adv-x="1220" d="M106 457V633L1081 1090V872L346 547V543L1081 217V0L106 457Z" />
<glyph unicode="=" glyph-name="equal" horiz-adv-x="1220" d="M1133 666H86V856H1133V666ZM1133 240H86V430H1133V240Z" />
<glyph unicode="&gt;" glyph-name="greater" horiz-adv-x="1220" d="M1130 639V451L156 0V215L907 543V547L156 874V1090L1130 639Z" />
<glyph unicode="?" glyph-name="question" horiz-adv-x="894" d="M551 449H264L270 502Q296 673 457 842Q472 858 503 890T550 939T585 981T613 1027T621 1069Q621 1164 502 1167Q372 1167 279 1110L240 1317Q387 1405 586 1405Q734 1405 829 1328T924 1126Q924
998 823 872Q792 834 700 739Q587 625 561 498Q559 490 556 473T551 449ZM338 -23Q267 -23 222 24T176 145Q176 229 232 289T375 350Q449 350 496 302T543 178Q543 90 486 34T338 -23Z" />
<glyph unicode="@" glyph-name="at" horiz-adv-x="1533" d="M883 512L913 707Q877 715 850 715Q749 715 679 629T608 424Q608 365 634 331T709 297Q766 297 817 360T883 512ZM1057 -23L1094 -139Q1005 -181 920 -197T721 -213Q592 -213 476 -168T272 -42T132 163T80
432Q80 588 135 730T289 979T532 1149T846 1212Q1116 1212 1290 1046T1464 621Q1464 399 1354 265T1075 131Q1001 131 955 171T901 289H895Q797 131 631 131Q530 131 466 203T401 399Q401 526 459 634T628 810T881 877Q948 877 1016 863T1124 827L1063 446Q1048
356 1060 313T1116 268Q1189 265 1251 357T1313 614Q1313 823 1184 955T825 1087Q707 1087 600 1042T412 917T284 716T236 451Q236 197 380 56T762 -86Q928 -86 1057 -23Z" />
<glyph unicode="A" glyph-name="A" horiz-adv-x="1265" d="M817 358H420L258 0H-57L614 1380H993L1155 0H844L817 358ZM506 584H805L776 881Q772 952 758 1151H754Q747 1134 706 1031T643 881L506 584Z" />
<glyph unicode="B" glyph-name="B" horiz-adv-x="1191" d="M41 14L295 1358Q457 1391 657 1391Q874 1391 999 1319Q1072 1282 1115 1216T1159 1065Q1159 941 1081 857T881 737V731Q982 700 1040 621T1098 430Q1098 227 909 102Q745 -10 389 -10Q158 -10 41 14ZM549
1153L487 831H586Q709 831 783 881T858 1020Q858 1091 806 1126T666 1161Q593 1161 549 1153ZM442 616L369 225Q403 221 481 221Q565 221 631 242T742 314T786 438Q786 616 535 616H442Z" />
<glyph unicode="C" glyph-name="C" horiz-adv-x="1193" d="M1049 276L1073 39Q941 -20 711 -20Q434 -20 267 137T100 565Q100 791 193 969T449 1255Q660 1401 954 1401Q1056 1401 1138 1383T1257 1343L1176 1104Q1079 1149 926 1149Q738 1149 610 1042Q522 968
471 854T420 598Q420 430 514 331T786 231Q940 231 1049 276Z" />
<glyph unicode="D" glyph-name="D" horiz-adv-x="1394" d="M41 16L297 1360Q481 1391 680 1391Q1006 1391 1182 1241Q1364 1092 1364 809Q1364 612 1288 446T1081 174Q962 78 804 34T420 -10Q193 -10 41 16ZM555 1145L381 236Q430 229 510 229Q631 229 732 270T901
389Q1044 552 1044 807Q1044 974 952 1064T680 1155Q607 1155 555 1145Z" />
<glyph unicode="E" glyph-name="E" horiz-adv-x="1058" d="M985 834L936 586H446L383 252H934L887 0H39L301 1380H1118L1069 1128H549L492 834H985Z" />
<glyph unicode="F" glyph-name="F" horiz-adv-x="1046" d="M39 0L301 1380H1110L1061 1128H549L485 805H967L918 557H438L334 0H39Z" />
<glyph unicode="G" glyph-name="G" horiz-adv-x="1378" d="M1317 786L1178 63Q940 -14 731 -14Q439 -14 272 137Q189 209 144 320T98 563Q98 754 171 917T379 1194Q496 1291 653 1343T989 1395Q1111 1395 1208 1376T1354 1333L1266 1085Q1146 1141 973 1141Q765
1141 623 1030Q531 958 477 841T422 584Q422 413 516 325T776 236Q868 236 928 260L983 551H768L815 786H1317Z" />
<glyph unicode="H" glyph-name="H" horiz-adv-x="1363" d="M301 1380H596L494 842H993L1096 1380H1393L1130 0H836L944 580H442L334 0H39L301 1380Z" />
<glyph unicode="I" glyph-name="I" horiz-adv-x="561" d="M295 1380H590L328 0H33L295 1380Z" />
<glyph unicode="J" glyph-name="J" horiz-adv-x="817" d="M397 506L563 1380H858L684 469Q633 206 511 92T154 -23Q91 -23 26 -14T-74 10L-16 262Q58 238 147 238Q248 238 308 298T397 506Z" />
<glyph unicode="K" glyph-name="K" horiz-adv-x="1208" d="M39 0L301 1380H592L475 764H481Q499 790 520 817T566 875T604 922L987 1380H1356L797 784L1116 0H797L565 600L418 461L330 0H39Z" />
<glyph unicode="L" glyph-name="L" horiz-adv-x="997" d="M39 0L301 1380H596L383 258H913L864 0H39Z" />
<glyph unicode="M" glyph-name="M" horiz-adv-x="1681" d="M1479 0H1192L1276 569Q1317 845 1368 1108H1362Q1229 797 1124 588L842 23H612L563 582Q549 755 532 1108H528Q517 1058 476 857T414 569L276 0H6L352 1380H748L791 856Q792 832 799 731T810 558T815
416H823Q890 606 1010 856L1266 1380H1665L1479 0Z" />
<glyph unicode="N" glyph-name="N" horiz-adv-x="1363" d="M313 0H39L301 1380H647L829 854Q905 614 954 383H961Q969 579 1024 879L1118 1380H1395L1133 0H827L635 551Q549 808 500 1032H494Q474 852 406 483L313 0Z" />
<glyph unicode="O" glyph-name="O" horiz-adv-x="1443" d="M856 1403Q1034 1403 1161 1327T1351 1123T1413 827Q1413 636 1349 463T1167 176Q962 -23 657 -23Q483 -23 355 54T162 261T98 553Q98 743 165 917T352 1206Q450 1300 579 1351T856 1403ZM821 1157Q685
1157 584 1053Q504 975 458 835T412 563Q412 409 484 316T700 223Q831 223 932 324Q1009 401 1054 545T1100 819Q1100 888 1087 945T1043 1051T956 1129T821 1157Z" />
<glyph unicode="P" glyph-name="P" horiz-adv-x="1144" d="M39 0L295 1356Q438 1391 655 1391Q892 1391 1022 1300Q1171 1200 1171 1006Q1171 882 1121 783T985 618Q819 489 543 489Q514 489 469 493T422 498L328 0H39ZM545 1147L467 739Q519 729 582 729Q711
729 792 801T874 981Q874 1073 817 1114T666 1155Q593 1155 545 1147Z" />
<glyph unicode="Q" glyph-name="Q" horiz-adv-x="1443" d="M1294 -14L1192 -248Q902 -163 676 -53Q593 -18 578 -18Q369 -4 234 150T98 557Q98 736 160 905T338 1192Q440 1294 575 1348T858 1403Q994 1403 1101 1357T1276 1230T1378 1047T1413 827Q1413 649 1352
477T1182 195Q1088 104 979 61V55Q1143 12 1294 -14ZM823 1157Q688 1157 586 1055Q506 975 459 831T412 557Q412 404 484 313T698 221Q826 221 930 322Q1006 400 1053 546T1100 825Q1100 875 1093 920T1065 1009T1015 1085T935 1137T823 1157Z" />
<glyph unicode="R" glyph-name="R" horiz-adv-x="1193" d="M41 0L299 1356Q445 1391 668 1391Q904 1391 1030 1311Q1184 1219 1184 1042Q1184 896 1098 797T870 651V645Q982 595 1001 393Q1006 349 1016 245T1035 84T1055 0H752Q732 57 713 326Q702 449 658 497T524
545H434L332 0H41ZM551 1149L479 766H600Q720 766 798 831T877 997Q877 1078 819 1118T666 1159Q591 1159 551 1149Z" />
<glyph unicode="S" glyph-name="S" horiz-adv-x="1044" d="M0 76L98 319Q245 231 424 231Q516 231 579 273T643 391Q643 448 601 491T457 588Q396 620 350 653T261 731T195 832T172 952Q172 1089 245 1192T441 1348T715 1401Q911 1401 1040 1333L948 1087Q905
1111 837 1129T692 1147Q593 1147 537 1106T481 1004Q481 949 529 907T682 807Q956 667 956 442Q956 330 912 241T790 94T612 7T395 -23Q261 -21 159 7T0 76Z" />
<glyph unicode="T" glyph-name="T" horiz-adv-x="1079" d="M289 0L502 1122H137L188 1380H1214L1165 1122H797L584 0H289Z" />
<glyph unicode="U" glyph-name="U" horiz-adv-x="1341" d="M295 1380H590L440 586Q424 511 424 424Q424 336 477 281T625 225Q744 225 819 310T930 584L1081 1380H1376L1227 596Q1166 277 1016 127T588 -23Q371 -25 250 88T129 418Q129 505 150 610L295 1380Z" />
<glyph unicode="V" glyph-name="V" horiz-adv-x="1251" d="M678 0H336L164 1380H469L530 723Q551 519 563 299H567Q635 479 752 725L1061 1380H1391L678 0Z" />
<glyph unicode="W" glyph-name="W" horiz-adv-x="1769" d="M569 0H242L188 1380H487V766Q487 565 479 319H483L647 762L893 1380H1217L1212 764Q1212 596 1200 326H1204Q1266 515 1356 766L1595 1380H1905L1296 0H977L967 567Q964 793 979 1024H975Q964 993 938
917T897 797T857 687T807 559L569 0Z" />
<glyph unicode="X" glyph-name="X" horiz-adv-x="1165" d="M1059 0H745L651 279Q583 496 578 514H573L434 268L270 0H-84L432 705L190 1380H502L586 1116Q643 913 649 887H655L786 1120L946 1380H1298L795 702L1059 0Z" />
<glyph unicode="Y" glyph-name="Y" horiz-adv-x="1167" d="M604 0H309L416 563L145 1380H461L549 1030Q591 844 602 780H606L748 1032L954 1380H1307L711 569L604 0Z" />
<glyph unicode="Z" glyph-name="Z" horiz-adv-x="1132" d="M-51 0L-20 170L780 1120V1126H219L270 1380H1227L1192 1198L406 260V254H1024L975 0H-51Z" />
<glyph unicode="[" glyph-name="bracketleft" horiz-adv-x="643" d="M412 -229H0L311 1405H723L690 1235H500L252 -59H442L412 -229Z" />
<glyph unicode="\" glyph-name="backslash" horiz-adv-x="690" d="M641 -82H436L106 1403H309L641 -82Z" />
<glyph unicode="]" glyph-name="bracketright" horiz-adv-x="643" d="M258 1405H670L358 -229H-53L-20 -59H170L416 1235H225L258 1405Z" />
<glyph unicode="^" glyph-name="asciicircum" horiz-adv-x="1220" d="M1114 362H893L596 1092H590L291 362H74L500 1331H688L1114 362Z" />
<glyph unicode="_" glyph-name="underscore" horiz-adv-x="1024" d="M-111 -154H913L893 -256H-131L-111 -154Z" />
<glyph unicode="`" glyph-name="grave" horiz-adv-x="808" d="M244 1434H528L682 1122H471L244 1434Z" />
<glyph unicode="a" glyph-name="a" horiz-adv-x="1134" d="M954 0H684Q685 34 690 104T696 199H692Q627 82 539 30T354 -23Q219 -23 135 73T51 326Q51 430 78 528T162 717T302 876T505 984T768 1024Q942 1024 1100 975L995 451Q976 348 964 219T954 0ZM723 561L768
793Q722 801 688 801Q597 801 520 735T400 572T358 381Q358 305 388 260T479 215Q552 215 621 302T723 561Z" />
<glyph unicode="b" glyph-name="b" horiz-adv-x="1146" d="M299 1454H596L477 881H481Q537 948 618 986T791 1024Q866 1024 925 995T1021 916T1075 805T1094 674Q1094 575 1069 477T990 289T860 129T672 19T430 -23Q254 -23 164 50T74 258Q74 332 96 440L299 1454ZM408
504L389 422Q377 355 379 311Q380 258 409 230T492 201Q573 201 642 268T748 429T784 612Q784 690 751 737T653 784Q571 784 502 708T408 504Z" />
<glyph unicode="c" glyph-name="c" horiz-adv-x="890" d="M764 256L766 33Q657 -20 481 -20Q292 -20 176 89T59 389Q59 521 108 638T242 840T450 974T713 1024Q829 1024 918 991L844 764Q784 788 709 788Q608 788 529 736T410 600T369 422Q369 323 424 269T565
215Q659 215 764 256Z" />
<glyph unicode="d" glyph-name="d" horiz-adv-x="1146" d="M909 1454H1202L999 389Q958 171 952 0H682L696 162H692Q629 67 543 22T362 -23Q230 -23 142 78T53 356Q53 531 130 683T354 931T684 1026Q758 1026 821 1001L909 1454ZM727 498L780 766Q738 801 664
801Q578 801 507 742T398 591T360 403Q360 314 397 265T498 215Q568 215 633 288T727 498Z" />
<glyph unicode="e" glyph-name="e" horiz-adv-x="1026" d="M844 270L864 57Q707 -23 489 -23Q279 -23 168 89T57 401Q57 493 82 583T158 752T278 892T442 988T641 1024Q795 1024 892 943T989 723Q989 371 338 387Q342 323 371 285Q430 207 563 207Q715 207 844
270ZM713 725Q713 762 684 785T604 809Q510 809 447 746T367 602Q546 600 629 628T713 725Z" />
<glyph unicode="f" glyph-name="f" horiz-adv-x="673" d="M354 0H61L209 778H78L121 1004H252L260 1055Q299 1273 428 1382Q540 1477 713 1477Q814 1477 868 1452L817 1219Q779 1235 723 1235Q654 1235 610 1184T551 1053L541 1004H739L696 778H500L354 0Z" />
<glyph unicode="g" glyph-name="g" horiz-adv-x="1142" d="M23 -365L92 -139Q132 -163 209 -179T354 -195Q472 -195 547 -134T653 72L670 158H666Q552 8 379 8Q234 8 147 111T57 367Q56 466 83 561T167 740T303 887T492 987T729 1024Q926 1024 1100 954L948 129Q919
-24 870 -136T737 -315Q595 -428 350 -428Q250 -428 163 -411T23 -365ZM729 512L780 780Q742 799 674 799Q588 799 517 741T408 595T369 412Q369 332 403 284T504 236Q577 236 641 312T729 512Z" />
<glyph unicode="h" glyph-name="h" horiz-adv-x="1153" d="M322 0H27L303 1454H598L485 872H489Q626 1024 809 1024Q927 1024 994 953T1061 754Q1061 673 1042 573L934 0H639L743 549Q756 605 756 672Q756 786 655 786Q575 786 506 696T410 459L322 0Z" />
<glyph unicode="i" glyph-name="i" horiz-adv-x="542" d="M322 0H27L217 1001H512L322 0ZM403 1126H399Q337 1126 298 1166T258 1270Q258 1343 308 1390T428 1438Q494 1438 536 1398T578 1292Q578 1216 528 1171T403 1126Z" />
<glyph unicode="j" glyph-name="j" horiz-adv-x="563" d="M248 1001H541L358 33Q315 -215 219 -322Q172 -375 100 -401T-55 -428Q-135 -428 -195 -412L-162 -190Q-127 -195 -96 -195Q-39 -195 0 -150T61 20L248 1001ZM420 1126Q358 1126 319 1166T279 1270Q279
1343 329 1390T449 1438Q514 1438 555 1398T596 1292Q596 1216 546 1171T420 1126Z" />
<glyph unicode="k" glyph-name="k" horiz-adv-x="1085" d="M319 0H27L303 1454H596L430 584H434L524 696L780 1001H1145L719 588L997 0H668L492 428L381 322L319 0Z" />
<glyph unicode="l" glyph-name="l" horiz-adv-x="542" d="M322 0H27L305 1454H600L322 0Z" />
<glyph unicode="m" glyph-name="m" horiz-adv-x="1701" d="M311 0H27L152 676Q176 817 203 1001H455L436 840H440Q573 1026 784 1026Q895 1026 955 969T1022 836Q1088 931 1177 978T1368 1026Q1483 1026 1547 955T1612 756Q1612 680 1595 584L1487 0H1200L1300
549Q1315 614 1315 670Q1315 724 1291 756T1217 788Q1142 788 1076 697T981 455L897 0H612L717 551Q729 633 729 666Q729 788 635 788Q559 788 489 693T393 451L311 0Z" />
<glyph unicode="n" glyph-name="n" horiz-adv-x="1153" d="M319 0H25L152 676Q171 766 207 1001H467L449 836H453Q590 1024 803 1024Q926 1024 993 953T1061 750Q1061 675 1044 582L934 0H637L743 555Q754 610 754 666Q754 786 653 786Q576 786 504 695T403 444L319 0Z" />
<glyph unicode="o" glyph-name="o" horiz-adv-x="1144" d="M659 1026Q855 1026 969 908T1083 612Q1083 431 1006 286T793 59T485 -23Q294 -23 178 91T61 393Q61 522 105 638T226 839T416 975T659 1026ZM621 801Q561 801 511 761T430 658T384 527T367 397Q367 308
409 256T528 203Q585 203 633 242T712 343T760 474T778 610Q778 689 740 745T621 801Z" />
<glyph unicode="p" glyph-name="p" horiz-adv-x="1150" d="M240 -406H-55L139 614Q162 734 197 1010H461L442 856H446Q507 937 591 980T768 1024Q873 1024 947 971T1057 834T1092 643Q1092 514 1050 394T933 181T748 33T510 -23Q396 -23 326 18H319L240 -406ZM403
465L367 248Q419 201 502 201Q577 201 643 265T745 425T782 621Q782 688 751 736T653 784Q569 784 500 698T403 465Z" />
<glyph unicode="q" glyph-name="q" horiz-adv-x="1146" d="M850 -406H555L676 145H672Q617 63 534 20T362 -23Q224 -23 139 81T53 356Q53 454 79 548T160 729T295 881T487 985T735 1024Q884 1024 1106 965L850 -406ZM729 506L780 778Q738 799 666 799Q579 799
508 737T398 582T360 393Q360 308 394 262T485 215Q565 215 634 294T729 506Z" />
<glyph unicode="r" glyph-name="r" horiz-adv-x="757" d="M322 0H27L139 596Q152 664 161 740T179 901T190 1001H446Q445 994 439 916T428 797H434Q491 902 572 963T754 1024Q791 1024 809 1022L752 735Q737 737 705 737Q460 737 391 373L322 0Z" />
<glyph unicode="s" glyph-name="s" horiz-adv-x="851" d="M-8 57L63 264Q206 195 324 195Q384 195 417 220T451 285Q451 322 423 351T326 414Q115 519 115 680Q115 836 237 931T555 1026Q717 1026 813 975L741 766Q643 809 543 809Q483 809 448 786T412 721Q412
665 532 606Q633 556 695 491T758 332Q758 164 630 71T297 -20Q203 -19 120 2T-8 57Z" />
<glyph unicode="t" glyph-name="t" horiz-adv-x="712" d="M289 1192L592 1274L541 1004H756L711 778H498L430 438Q414 360 414 311Q414 227 500 227Q555 227 580 231L547 0Q483 -23 373 -23Q244 -23 178 36T111 195Q111 274 133 381L209 778H82L123 1004H252L289 1192Z" />
<glyph unicode="u" glyph-name="u" horiz-adv-x="1146" d="M819 1001H1112L985 326Q953 155 932 0H672L690 162L686 164Q540 -23 342 -23Q218 -23 151 47T84 258Q84 343 104 442L211 1001H506L403 465Q389 383 389 332Q389 280 413 249T489 217Q567 217 634 304T731
537L819 1001Z" />
<glyph unicode="v" glyph-name="v" horiz-adv-x="1048" d="M94 1001H397L444 563Q450 500 459 414T471 291H477Q521 407 590 561L791 1001H1120L563 0H262L94 1001Z" />
<glyph unicode="w" glyph-name="w" horiz-adv-x="1501" d="M104 1001H403L406 578Q406 462 395 258H399Q424 335 522 567L719 1001H961L985 582Q993 358 987 258H993Q1026 370 1102 586L1274 1001H1571L1083 0H807L778 348Q770 455 770 670H766Q673 422 647 362L477
0H199L104 1001Z" />
<glyph unicode="x" glyph-name="x" horiz-adv-x="1019" d="M100 1001H424L483 852Q498 813 518 758T547 684H553Q571 710 604 761T659 844L770 1001H1108L686 514L920 0H596L532 160Q499 244 469 342H463Q456 331 423 273T362 174L242 0H-98L336 518L100 1001Z" />
<glyph unicode="y" glyph-name="y" horiz-adv-x="1017" d="M90 1001H399L461 565L494 326H498Q544 453 586 559L768 1001H1079L721 281Q524 -114 336 -291Q257 -365 166 -409T14 -463L-51 -209Q46 -180 119 -131Q226 -56 283 43Q293 63 287 92L90 1001Z" />
<glyph unicode="z" glyph-name="z" horiz-adv-x="921" d="M-53 0L-20 178L305 526Q427 654 549 758L551 762H123L170 1001H952L918 815L600 475Q458 327 356 244L354 240H825L778 0H-53Z" />
<glyph unicode="{" glyph-name="braceleft" horiz-adv-x="643" d="M63 510L92 668Q142 670 176 682T230 717T258 759T272 807Q282 859 292 968T311 1128Q364 1405 664 1405H739L707 1233H670Q550 1233 520 1087Q512 1048 504 963T487 829Q471 717 420 663T276
590V586Q339 571 375 532T412 434Q412 372 369 227T326 37Q326 -57 424 -57H461L430 -229H369Q100 -229 100 -12Q100 8 102 30T111 78T121 122T135 171T147 215Q151 228 160 258T174 303T184 340T192 379T195 410Q195 456 162 482T63 510Z" />
<glyph unicode="|" glyph-name="bar" horiz-adv-x="491" d="M178 1536H379V-512H178V1536Z" />
<glyph unicode="}" glyph-name="braceright" horiz-adv-x="643" d="M606 666L578 508Q528 506 493 493T439 458T412 417T397 369Q388 319 378 210T358 47Q306 -229 6 -229H-70L-37 -57H0Q120 -57 150 90Q159 130 167 215T182 346Q199 459 249 512T393 586V590Q330
604 294 643T258 741Q258 762 263 790T272 837T288 895T303 948Q346 1095 346 1139Q346 1184 321 1208T248 1233H211L242 1405H303Q571 1405 571 1188Q571 1102 524 961Q522 955 514 931T504 898T495 870T487 840T481 815T476 789T475 766Q475 720 507 694T606
666Z" />
<glyph unicode="~" glyph-name="asciitilde" horiz-adv-x="1220" d="M293 395H98Q97 590 173 682T383 774Q451 774 513 752T666 678Q744 633 784 615T858 596Q937 596 942 762H1137Q1145 558 1070 469T864 379Q795 379 726 405T565 487Q563 488 548 497T528 508T509
519T487 530T467 539T445 548T425 554T405 559T387 561Q303 561 293 395Z" />
</font>
</defs>
</svg>
